{"title":"Insidious: Chapter 3 (2015) 720p HC HDRip x264 AC3 -={SPARROW}=-","uid":12036752,"size":967140549,"categoryP":"video","categoryS":"movies","magnet":"?xt=urn:btih:04cfd336ceae691cb1ad0e259660c28e665d39d7&amp;dn=Insidious%3A+Chapter+3+%282015%29+720p+HC+HDRip+x264+AC3+-%3D%7BSPARROW%7D%3D-&amp;tr=udp%3A%2F%2Ftracker.openbittorrent.com%3A80&amp;tr=udp%3A%2F%2Fopen.demonii.com%3A1337&amp;tr=udp%3A%2F%2Ftracker.coppersurfer.tk%3A6969&amp;tr=udp%3A%2F%2Fexodus.desync.com%3A6969","seeders":27,"leechers":3,"uploader":"SS132203","files":2,"time":1434695899,"description":"Insidious: Chapter 3 (2015) 720p HC HDRip x264 AC3 -={SPARROW}=-\n &lt;a href=&quot;\nhttp://imgsparrow.co/image/Q4&quot; rel=&quot;nofollow&quot; target=&quot;_NEW&quot;&gt;\nhttp://imgsparrow.co/image/Q4&lt;/a&gt;\n &lt;a href=&quot;\nhttp://imgsparrow.co/image/Et&quot; rel=&quot;nofollow&quot; target=&quot;_NEW&quot;&gt;\nhttp://imgsparrow.co/image/Et&lt;/a&gt;\n\nInfo : - \n\nSOURCE: MP4Ba (Thanks a Ton)\n\nFormat                      : Matroska\nFormat version              : Version 2\nFile size                   : 922 MiB\nDuration                    : 1h 37mn\nOverall bit rate            : 1 323 Kbps\nWriting application         : HandBrake 0.10.1 2015030800\nWriting library             : Lavf55.12.0\n\nVideo\nID                          : 1\nFormat                      : AVC\nFormat/Info                 : Advanced Video Codec\nFormat profile              : &lt;a class=&quot;__cf_email__&quot; href=&quot;/cdn-cgi/l/email-protection&quot; data-cfemail=&quot;b9f4d8d0d7f9f58d9788&quot;&gt;[email&amp;#160;protected]&lt;/a&gt;&lt;script data-cfhash='f9e31' type=&quot;text/javascript&quot;&gt;\n/* &lt;![CDATA[ */!function(){try{var t=&quot;currentScript&quot;in document?document.currentScript:function(){for(var t=document.getElementsByTagName(&quot;script&quot;),e=t.length;e--;)if(t[e].getAttribute(&quot;data-cfhash&quot;))return t[e]}();if(t&amp;&amp;t.previousSibling){var e,r,n,i,c=t.previousSibling,a=c.getAttribute(&quot;data-cfemail&quot;);if(a){for(e=&quot;&quot;,r=parseInt(a.substr(0,2),16),n=2;a.length-n;n+=2)i=parseInt(a.substr(n,2),16)^r,e+=String.fromCharCode(i);e=document.createTextNode(e),c.parentNode.replaceChild(e,c)}t.parentNode.removeChild(t);}}catch(u){}}()/* ]]&gt; */&lt;/script&gt;\nFormat settings, CABAC      : Yes\nFormat settings, ReFrames   : 4 frames\nCodec ID                    : V_MPEG4/ISO/AVC\nDuration                    : 1h 37mn\nBit rate                    : 1 000 Kbps\nWidth                       : 1 280 pixels\nHeight                      : 538 pixels\nDisplay aspect ratio        : 2.40:1\nFrame rate mode             : Constant\nFrame rate                  : 23.976 fps\nColor space                 : YUV\nChroma subsampling          : 4:2:0\nBit depth                   : 8 bits\nScan type                   : Progressive\nBits/(Pixel*Frame)          : 0.061\nStream size                 : 681 MiB (74%)\nWriting library             : x264 core 142 r2479 dd79a61\nDefault                     : Yes\nForced                      : No\nColor range                 : Limited\nColor primaries             : BT.709\nTransfer characteristics    : BT.709\nMatrix coefficients         : BT.709\n\nAudio\nID                          : 2\nFormat                      : AC-3\nFormat/Info                 : Audio Coding 3\nMode extension              : CM (complete main)\nFormat settings, Endianness : Big\nCodec ID                    : A_AC3\nDuration                    : 1h 37mn\nBit rate mode               : Constant\nBit rate                    : 320 Kbps\nChannel(s)                  : 2 channels\nChannel positions           : Front: L R\nSampling rate               : 48.0 KHz\nCompression mode            : Lossy\nDelay relative to video     : 27ms\nStream size                 : 223 MiB (24%)\n\nScreens : - \n &lt;a href=&quot;\nhttp://imgsparrow.co/image/Qz&quot; rel=&quot;nofollow&quot; target=&quot;_NEW&quot;&gt;\nhttp://imgsparrow.co/image/Qz&lt;/a&gt; &lt;a href=&quot;\nhttp://imgsparrow.co/image/Q7&quot; rel=&quot;nofollow&quot; target=&quot;_NEW&quot;&gt;\nhttp://imgsparrow.co/image/Q7&lt;/a&gt; &lt;a href=&quot;\nhttp://imgsparrow.co/image/Qk&quot; rel=&quot;nofollow&quot; target=&quot;_NEW&quot;&gt;\nhttp://imgsparrow.co/image/Qk&lt;/a&gt; &lt;a href=&quot;\nhttp://imgsparrow.co/image/Qn&quot; rel=&quot;nofollow&quot; target=&quot;_NEW&quot;&gt;\nhttp://imgsparrow.co/image/Qn&lt;/a&gt; &lt;a href=&quot;\nhttp://imgsparrow.co/image/Qy&quot; rel=&quot;nofollow&quot; target=&quot;_NEW&quot;&gt;\nhttp://imgsparrow.co/image/Qy&lt;/a&gt; &lt;a href=&quot;\nhttp://imgsparrow.co/image/Q5&quot; rel=&quot;nofollow&quot; target=&quot;_NEW&quot;&gt;\nhttp://imgsparrow.co/image/Q5&lt;/a&gt; &lt;a href=&quot;\nhttp://imgsparrow.co/image/QA&quot; rel=&quot;nofollow&quot; target=&quot;_NEW&quot;&gt;\nhttp://imgsparrow.co/image/QA&lt;/a&gt; &lt;a href=&quot;\nhttp://imgsparrow.co/image/QQ&quot; rel=&quot;nofollow&quot; target=&quot;_NEW&quot;&gt;\nhttp://imgsparrow.co/image/QQ&lt;/a&gt; &lt;a href=&quot;\nhttp://imgsparrow.co/image/QZ&quot; rel=&quot;nofollow&quot; target=&quot;_NEW&quot;&gt;\nhttp://imgsparrow.co/image/QZ&lt;/a&gt; &lt;a href=&quot;\nhttp://imgsparrow.co/image/Qa&quot; rel=&quot;nofollow&quot; target=&quot;_NEW&quot;&gt;\nhttp://imgsparrow.co/image/Qa&lt;/a&gt;\n &lt;a href=&quot;\nhttp://imgsparrow.co/image/N2&quot; rel=&quot;nofollow&quot; target=&quot;_NEW&quot;&gt;\nhttp://imgsparrow.co/image/N2&lt;/a&gt;","torrent":{"xt":"urn:btih:04cfd336ceae691cb1ad0e259660c28e665d39d7","amp;dn":"Insidious%3A+Chapter+3+%282015%29+720p+HC+HDRip+x264+AC3+-%3D%7BSPARROW%7D%3D-","amp;tr":["udp%3A%2F%2Ftracker.openbittorrent.com%3A80","udp%3A%2F%2Fopen.demonii.com%3A1337","udp%3A%2F%2Ftracker.coppersurfer.tk%3A6969","udp%3A%2F%2Fexodus.desync.com%3A6969"],"infoHash":"04cfd336ceae691cb1ad0e259660c28e665d39d7","infoHashBuffer":{"type":"Buffer","data":[4,207,211,54,206,174,105,28,177,173,14,37,150,96,194,142,102,93,57,215]},"announce":[],"urlList":[]}}